<svg xmlns="http://www.w3.org/2000/svg" viewBox="0 0 1024 1024" width="1024" height="1024">
  <defs>
    <linearGradient id="bg" x1="15%" y1="0%" x2="85%" y2="100%">
      <stop offset="0%" stop-color="rgb(137,114,179)"></stop>
      <stop offset="100%" stop-color="rgb(57,51,111)"></stop>
    </linearGradient>
    <linearGradient id="hl" x1="0%" y1="0%" x2="0%" y2="50%">
      <stop offset="0%" stop-color="white" stop-opacity="0.14"></stop>
      <stop offset="100%" stop-color="white" stop-opacity="0"></stop>
    </linearGradient>
    <clipPath id="squircle">
      <rect x="0" y="0" width="1024" height="1024" rx="225.28" ry="225.28"></rect>
    </clipPath>
  </defs>
  <g clip-path="url(#squircle)">
    <rect x="0" y="0" width="1024" height="1024" fill="url(#bg)"></rect>
    <rect x="0" y="0" width="1024" height="1024" fill="url(#hl)"></rect>
    <ellipse cx="0" cy="0" rx="18.618181818181817" ry="34.90909090909091" fill="white" fill-opacity="0.9" transform="translate(204.79999999999998 733.090909090909) rotate(20)"></ellipse>
    <ellipse cx="0" cy="0" rx="27.927272727272726" ry="55.85454545454545" fill="white" fill-opacity="0.85" transform="translate(316.5090909090909 633.0181818181818) rotate(-15)"></ellipse>
    <ellipse cx="0" cy="0" rx="44.21818181818182" ry="86.10909090909091" fill="white" fill-opacity="0.8" transform="translate(472.43636363636364 486.4) rotate(25)"></ellipse>
    <ellipse cx="0" cy="0" rx="62.836363636363636" ry="123.34545454545454" fill="white" fill-opacity="0.75" transform="translate(667.9272727272727 290.9090909090909) rotate(-10)"></ellipse>
    <rect x="158.25454545454545" y="837.8181818181818" width="707.4909090909091" height="27.927272727272726" rx="13.963636363636363" fill="white"></rect>
    <rect x="158.25454545454545" y="754.0363636363636" width="9.309090909090909" height="93.0909090909091" fill="white" fill-opacity="1"></rect>
    <rect x="856.4363636363637" y="754.0363636363636" width="9.309090909090909" height="93.0909090909091" fill="white" fill-opacity="1"></rect>
    <rect x="297.8909090909091" y="781.9636363636364" width="9.309090909090909" height="65.16363636363636" fill="white" fill-opacity="0.85"></rect>
    <rect x="437.5272727272727" y="754.0363636363636" width="9.309090909090909" height="93.0909090909091" fill="white" fill-opacity="1"></rect>
    <rect x="577.1636363636363" y="781.9636363636364" width="9.309090909090909" height="65.16363636363636" fill="white" fill-opacity="0.85"></rect>
    <rect x="716.8" y="781.9636363636364" width="9.309090909090909" height="65.16363636363636" fill="white" fill-opacity="0.85"></rect>
  </g>
</svg>